<svg width="48" height="48" viewBox="0 0 48 48" fill="none" xmlns="http://www.w3.org/2000/svg">
<g clip-path="url(#clip0_101_5)">
<rect width="48" height="48" fill="white"/>
<path d="M23.5044 14.38C24.8244 14.884 26.0724 15.28 27.2484 15.568C28.4244 15.832 29.2644 15.976 29.7684 16L30.5244 16.036C30.3564 19.012 30.1404 21.508 29.8764 23.524C29.6124 25.516 29.2164 27.436 28.6884 29.284C28.1604 31.108 27.5004 32.56 26.7084 33.64C24.9564 35.92 22.4124 37.156 19.0764 37.348C19.1964 37.228 19.3524 37.036 19.5444 36.772C19.7604 36.532 20.1204 35.836 20.6244 34.684C21.1284 33.532 21.5724 32.188 21.9564 30.652C22.3404 29.092 22.6884 26.872 23.0004 23.992C23.3364 21.112 23.5044 17.908 23.5044 14.38Z" fill="black"/>
</g>
<defs>
<clipPath id="clip0_101_5">
<rect width="48" height="48" fill="white"/>
</clipPath>
</defs>
</svg>
