<svg width="16" height="16" viewBox="0 0 16 16" fill="none" xmlns="http://www.w3.org/2000/svg">
<g clip-path="url(#clip0_101_5)">
<rect width="16" height="16" fill="white"/>
<path d="M7.79352 3.825C8.34352 4.035 8.86352 4.2 9.35352 4.32C9.84352 4.43 10.1935 4.49 10.4035 4.5L10.7185 4.515C10.6485 5.755 10.5585 6.795 10.4485 7.635C10.3385 8.465 10.1735 9.265 9.95352 10.035C9.73352 10.795 9.45852 11.4 9.12852 11.85C8.39852 12.8 7.33852 13.315 5.94852 13.395C5.99852 13.345 6.06352 13.265 6.14352 13.155C6.23352 13.055 6.38352 12.765 6.59352 12.285C6.80352 11.805 6.98852 11.245 7.14852 10.605C7.30852 9.955 7.45352 9.03 7.58352 7.83C7.72352 6.63 7.79352 5.295 7.79352 3.825Z" fill="black"/>
</g>
<defs>
<clipPath id="clip0_101_5">
<rect width="16" height="16" fill="white"/>
</clipPath>
</defs>
</svg>
